<svg width="212" height="75" viewBox="0 0 212 75" fill="none" xmlns="http://www.w3.org/2000/svg">
<g id="Logo_Metro_Jabar_Trans 1" clip-path="url(#clip0_42_19)">
<path id="Vector" d="M39.1376 0H39.6503C39.7551 0 39.8367 0.0929944 39.8251 0.185989L39.126 6.57936C39.1143 6.73047 39.2192 6.85834 39.3706 6.88159L39.5105 6.89321C39.6736 6.91646 39.7901 7.05595 39.7785 7.21869L38.555 18.7384C38.555 18.7849 38.5201 18.8197 38.4735 18.843L37.7045 19.1569C37.6113 19.1917 37.553 19.2847 37.5647 19.3893L37.9958 24.8876C38.0074 25.062 38.1589 25.1899 38.3337 25.1899L53.5389 25.1666C53.8652 25.1666 53.9933 25.5851 53.7137 25.7711L52.8631 26.3174C51.7329 27.0381 50.4163 27.4334 49.0647 27.4334L38.089 27.4217C37.9259 27.4217 37.7977 27.5612 37.8093 27.724L38.1822 31.3856C38.1938 31.5484 38.3337 31.6646 38.4968 31.6646L63.6408 31.653C63.9554 31.653 64.0719 32.0598 63.8156 32.2342L63.0699 32.734C61.9164 33.5129 60.5532 33.9313 59.1666 33.9313L38.1938 33.943C38.0657 33.943 37.9608 34.0592 37.9725 34.1871L38.322 37.8371C38.3337 38.0115 38.4851 38.1393 38.6483 38.1393H72.9271C73.2417 38.1393 73.3699 38.5578 73.1019 38.7206L71.8202 39.5459C70.9347 40.1155 69.8977 40.4177 68.8374 40.4177L4.4859 40.3945C3.09936 40.3945 1.77108 39.8946 0.722444 38.9995L0.104912 38.4648C-0.0698618 38.3137 -0.011604 38.0231 0.209775 37.9534L12.91 33.7802L12.5604 33.664C12.339 33.5942 12.1293 33.5012 11.9196 33.4082C11.605 33.2455 11.3021 33.0595 11.0224 32.8387L9.92717 31.9901C9.74075 31.839 9.78735 31.5367 10.0204 31.467L23.1633 27.1892L22.8837 27.0846C22.6157 26.98 22.3594 26.8521 22.1263 26.701L21.6952 26.422L20.4951 25.4688C20.332 25.3294 20.367 25.0736 20.565 24.9923L36.1082 18.5175C36.1898 18.4826 36.2364 18.4129 36.248 18.3315L37.4481 7.16057C37.4714 6.98621 37.6229 6.85834 37.7977 6.86996L37.9841 6.89321C38.0773 6.90484 38.1589 6.83509 38.1705 6.7421L38.9162 0.185989C38.9628 0.0697458 39.0444 0 39.1376 0ZM33.7896 43.0797H60.6347C65.3536 43.0797 69.0705 47.1947 68.5228 51.8676L68.3248 53.6927C68.1733 54.9597 67.1596 56.5522 66.0177 57.1218L62.4174 58.9352C62.266 59.0166 62.0795 58.8887 62.1028 58.7144L62.8951 52.4837C63.0932 50.8563 61.6135 49.1476 59.9706 49.1476L37.8443 49.1011C35.3509 49.1243 33.3235 46.7646 33.6497 44.1026L33.7896 43.0797Z" fill="#02A44C"/>
<path id="Vector_2" d="M18.8405 43.0796H45.441C50.358 43.0796 54.168 47.3573 53.5971 52.2279L52.4902 61.5041C52.3271 62.8758 51.4882 64.0847 50.2415 64.7008L46.2683 66.6885C46.0702 66.7815 45.8488 66.6304 45.8721 66.4096L47.5733 52.5069C47.7946 50.6935 46.3731 49.0894 44.5322 49.0894H22.8953C20.4018 49.1126 18.3745 46.7529 18.7007 44.0909L18.8405 43.0796Z" fill="#F9B617"/>
<path id="Vector_3" d="M2.66823 43.0796H29.2687C34.1857 43.0796 37.9957 47.3573 37.4248 52.2279L35.3625 69.7922C35.1994 71.1639 34.3605 72.3728 33.1137 72.9889L29.1406 74.9767C28.9425 75.0697 28.7211 74.9185 28.7444 74.6977L31.4126 52.5069C31.634 50.6935 30.2125 49.0894 28.3716 49.0894H6.73462C4.24119 49.1126 2.21382 46.7529 2.54007 44.0909L2.66823 43.0796Z" fill="#1A91CC"/>
<path id="Vector_4" d="M101.334 34.1056C101.334 31.4785 101.345 28.8049 101.415 27.1891H101.392C100.774 29.7697 99.2712 34.6636 97.6983 40.0224H95.3913C94.1795 35.4308 92.525 29.8627 91.8492 27.2008H91.8259C91.9191 28.9212 92.024 31.897 92.024 34.4194V40.0224H89.6354V25.1665H93.4454C94.8436 29.8627 96.3234 34.5473 96.6962 36.3723H96.7195C97.2672 34.1986 98.7353 29.6302 100.064 25.1665H103.885V40.034H101.345L101.334 34.1056ZM108.756 35.3378C108.837 36.8838 109.758 38.0579 111.261 38.0579C112.449 38.0579 113.055 37.5696 113.428 36.7908H115.933C115.409 38.6158 114.069 40.313 111.214 40.313C107.637 40.313 106.251 37.4069 106.251 34.6403C106.251 31.525 107.998 28.9328 111.191 28.9328C114.698 28.9328 116.061 31.8621 116.061 34.6171C116.061 34.8612 116.061 35.0355 116.049 35.3378H108.756ZM113.498 33.4546C113.44 32.4898 112.997 31.0716 111.179 31.0716C109.56 31.0716 108.895 32.176 108.791 33.4546H113.498ZM117.005 29.2234H118.694V25.957H121.211V29.2234H123.402V31.4204H121.211V36.3956C121.211 37.4185 121.398 37.8835 122.318 37.8835C122.574 37.8835 122.877 37.8719 123.134 37.8137V39.8829C122.668 40.0456 122.073 40.1154 121.432 40.1154C119.3 40.1154 118.683 39.011 118.683 36.8954V31.4204H116.993L117.005 29.2234ZM125.196 32.1643C125.196 31.1879 125.196 30.2115 125.173 29.235H127.619C127.666 29.5954 127.689 30.7694 127.689 31.4785C128.225 29.979 129.402 28.9095 131.255 28.956V31.6877C129.192 31.6529 127.689 32.792 127.689 35.9074V40.034H125.184L125.196 32.1643ZM142.51 34.6171C142.51 37.837 140.681 40.313 137.337 40.313C134.051 40.313 132.315 37.6045 132.315 34.6171C132.315 31.6064 134.121 28.9212 137.442 28.9212C140.856 28.9328 142.51 31.8737 142.51 34.6171ZM134.867 34.6287C134.867 36.4305 135.752 38.0346 137.407 38.0346C139.131 38.0346 139.923 36.477 139.923 34.6636C139.923 32.8618 139.108 31.2111 137.383 31.2111C135.659 31.2111 134.867 32.8037 134.867 34.6287ZM93.259 58.6212C93.259 63.2477 91.8026 65.2006 88.1323 65.2006C87.4332 65.2006 86.4429 65.1425 85.8486 64.9565V61.9109C86.1865 61.969 87.0371 62.0388 87.608 62.0388C89.5538 62.0388 89.8335 60.5393 89.8335 58.8421V44.6721H93.259V58.6212ZM108.033 61.2251C108.033 62.6316 108.138 64.5148 108.22 64.91H105.097C104.992 64.6078 104.911 63.8406 104.899 63.271C104.41 64.166 103.431 65.2587 100.961 65.2587C97.7099 65.2587 96.3467 62.899 96.3467 60.5858C96.3467 57.1915 98.7935 55.6222 102.79 55.6222H104.852V54.576C104.852 53.4136 104.491 52.1814 102.475 52.1814C100.658 52.1814 100.308 53.0997 100.098 54.2156H96.9642C97.1623 51.7397 98.5372 49.5078 102.58 49.5194C106.099 49.5427 108.033 51.0887 108.033 54.6109V61.2251ZM104.841 57.9005H103.093C100.681 57.9005 99.6324 58.691 99.6324 60.3649C99.6324 61.6203 100.355 62.6084 101.811 62.6084C104.491 62.6084 104.841 60.5625 104.841 58.3423V57.9005ZM111.668 43.5097H114.943V51.6467C115.525 50.5772 116.679 49.5078 118.974 49.5078C122.574 49.5078 124.508 52.7975 124.508 57.0868C124.508 61.4808 122.481 65.2355 118.613 65.2355C116.55 65.2355 115.572 64.4915 114.908 63.271C114.908 63.8638 114.849 64.4915 114.779 64.8751H111.634C111.668 63.2245 111.668 61.5622 111.668 59.9232V43.5097ZM121.176 57.1798C121.176 54.4249 120.174 52.472 118.03 52.472C115.642 52.472 114.791 54.2156 114.791 57.4588C114.791 60.1905 115.537 62.3178 117.96 62.3178C120.034 62.3178 121.176 60.2951 121.176 57.1798ZM138.118 61.2251C138.118 62.6316 138.222 64.5148 138.304 64.91H135.17C135.065 64.6078 134.983 63.8406 134.972 63.271C134.482 64.166 133.503 65.2587 131.033 65.2587C127.783 65.2587 126.419 62.899 126.419 60.5858C126.419 57.1915 128.866 55.6222 132.863 55.6222H134.925V54.576C134.925 53.4136 134.564 52.1814 132.548 52.1814C130.73 52.1814 130.381 53.0997 130.171 54.2156H127.037C127.235 51.7397 128.61 49.5078 132.653 49.5194C136.172 49.5427 138.106 51.0887 138.106 54.6109L138.118 61.2251ZM134.913 57.9005H133.166C130.754 57.9005 129.705 58.691 129.705 60.3649C129.705 61.6203 130.427 62.6084 131.884 62.6084C134.564 62.6084 134.913 60.5625 134.913 58.3423V57.9005ZM141.741 53.9483C141.741 52.2511 141.729 50.9725 141.706 49.8681H144.922C144.969 50.2401 145.015 51.6234 145.015 52.658C145.644 50.833 147.159 49.5543 149.443 49.5194V53.0183C146.705 52.9951 145.015 54.0761 145.015 58.0865V64.8867H141.741V53.9483ZM157.622 46.718H151.983L152.402 44.5558H165.965L165.545 46.718H159.883L156.48 64.91H154.208L157.622 46.718ZM166.396 54.4597C166.675 53.0067 166.943 51.4258 167.165 50.0774H169.239C169.215 50.461 169.006 51.9489 168.749 53.2159C169.705 51.1236 171.371 49.7868 173.398 49.7868L172.921 52.2976C170.404 52.5069 168.505 54.6341 167.876 57.9587L166.571 64.8984H164.403L166.396 54.4597ZM183.827 61.2251C183.594 62.4689 183.279 64.3055 183.209 64.8984H181.088C181.135 64.3636 181.275 63.4453 181.426 62.62C180.762 63.8057 179.644 65.189 176.94 65.189C174.284 65.189 173.305 63.2245 173.305 61.4576C173.305 57.2263 176.847 56.308 179.492 56.0174C180.867 55.8779 182.032 55.8779 182.696 55.8547L182.859 54.855C183.116 53.4601 183.023 51.6583 180.483 51.6583C178.257 51.6583 177.64 52.9602 177.243 54.0994H175.041C175.496 51.9024 176.964 49.7868 180.669 49.7868C183.71 49.7868 185.667 51.3212 185.003 54.8782L183.827 61.2251ZM182.382 57.6564C181.671 57.6797 180.785 57.6913 179.667 57.8192C177.523 58.0749 175.612 58.7259 175.612 61.0972C175.612 62.2248 176.288 63.1664 177.744 63.1664C180.634 63.1664 181.776 60.6439 182.347 57.8889L182.382 57.6564ZM189.175 53.8437C189.408 52.565 189.641 51.3096 189.839 50.0774H191.959C191.913 50.5424 191.656 52.2046 191.563 52.5999C192.309 51.2514 193.591 49.7752 196.014 49.7752C198.531 49.7752 200.115 51.4026 199.3 55.6222L197.564 64.8984H195.408L197.133 55.6919C197.564 53.4484 197.109 51.914 195.094 51.914C192.635 51.914 191.237 54.4481 190.654 57.4821L189.256 64.8984H187.089L189.175 53.8437ZM203.25 60.4463C203.401 61.9807 204.24 63.2361 206.337 63.2361C208.108 63.2361 209.041 62.2597 209.041 60.8415C209.041 59.4698 208.178 58.8072 206.302 58.04C203.459 56.9241 202.586 55.7965 202.586 54.0878C202.586 51.7862 204.17 49.7868 207.351 49.7868C210.777 49.7868 212.07 51.9489 212.012 54.0645H209.821C209.728 53.0183 209.297 51.7164 207.153 51.7164C205.766 51.7164 204.776 52.4836 204.776 53.8088C204.776 54.855 205.533 55.3432 207.398 56.0988C210.182 57.2147 211.313 58.4585 211.313 60.516C211.313 63.4686 209.192 65.189 206.034 65.189C202.667 65.189 201.048 63.2128 201.071 60.4463H203.25Z" fill="#383838"/>
</g>
<defs>
<clipPath id="clip0_42_19">
<rect width="212" height="75" fill="white"/>
</clipPath>
</defs>
</svg>
