<svg width="32" height="29" viewBox="0 0 32 29" fill="none" xmlns="http://www.w3.org/2000/svg">
<g id="Group">
<path id="Vector" d="M2.68227 1.65795C2.98721 1.62251 3.29603 1.67109 3.57536 1.79843C3.85469 1.92578 4.0939 2.12705 4.26713 2.38048C6.75306 6.01674 9.73752 7.52918 13.0504 7.87276C13.2121 6.45632 13.5944 5.05673 14.3136 3.82387C15.3679 2.015 17.0825 0.684459 19.5313 0.192663C22.9166 -0.487766 25.4935 0.738355 26.9874 2.23901L30.0056 1.67479C30.3214 1.61561 30.6476 1.64801 30.9456 1.76818C31.2436 1.88834 31.501 2.09124 31.6875 2.35294C31.8739 2.61464 31.9816 2.92421 31.9978 3.24513C32.0141 3.56604 31.9382 3.88491 31.7791 4.16408L28.8822 9.25383C29.1466 16.5988 27.1053 21.7256 22.7533 25.2574C20.4459 27.1303 17.1414 28.193 13.5153 28.5215C9.86047 28.8516 5.72905 28.4524 1.62289 27.2532C1.27205 27.1509 0.964019 26.9372 0.74528 26.6444C0.526541 26.3517 0.408965 25.9957 0.410296 25.6302C0.411627 25.2648 0.531793 24.9097 0.752659 24.6185C0.973525 24.3273 1.28311 24.1159 1.63468 24.0161C3.69955 23.4283 5.27262 22.9214 6.69243 22.0338C4.67303 20.9626 3.18586 19.5613 2.13321 17.9647C0.671299 15.7449 0.128976 13.269 0.0211855 11.0374C-0.0866053 8.80583 0.235083 6.73759 0.575298 5.24704C0.768985 4.39651 0.994672 3.54429 1.30625 2.72912C1.41616 2.44177 1.60268 2.19002 1.84555 2.00118C2.08843 1.81234 2.3767 1.69364 2.68227 1.65795Z" fill="white"/>
</g>
</svg>
