<svg width="40" height="40" viewBox="0 0 40 40" fill="none" xmlns="http://www.w3.org/2000/svg">
<g id="basil:instagram-solid">
<path id="Vector" d="M20 14.5833C18.5634 14.5833 17.1856 15.1539 16.1698 16.1698C15.154 17.1856 14.5833 18.5633 14.5833 19.9999C14.5833 21.4365 15.154 22.8143 16.1698 23.8301C17.1856 24.8459 18.5634 25.4166 20 25.4166C21.4366 25.4166 22.8143 24.8459 23.8301 23.8301C24.846 22.8143 25.4166 21.4365 25.4166 19.9999C25.4166 18.5633 24.846 17.1856 23.8301 16.1698C22.8143 15.1539 21.4366 14.5833 20 14.5833Z" fill="white"/>
<path id="Vector_2" fill-rule="evenodd" clip-rule="evenodd" d="M11.2833 5.13661C17.0767 4.49483 22.9233 4.49483 28.7167 5.13661C31.8817 5.48995 34.4333 7.98161 34.805 11.1583C35.4916 17.0327 35.4916 22.9672 34.805 28.8416C34.4333 32.0183 31.8817 34.5099 28.7183 34.8649C22.9244 35.5069 17.0773 35.5069 11.2833 34.8649C8.11835 34.5099 5.56668 32.0183 5.19501 28.8433C4.50832 22.9683 4.50832 17.0333 5.19501 11.1583C5.56668 7.98161 8.11835 5.48995 11.2833 5.13661ZM28.3333 9.99995C27.8913 9.99995 27.4674 10.1755 27.1548 10.4881C26.8423 10.8007 26.6667 11.2246 26.6667 11.6666C26.6667 12.1086 26.8423 12.5326 27.1548 12.8451C27.4674 13.1577 27.8913 13.3333 28.3333 13.3333C28.7754 13.3333 29.1993 13.1577 29.5119 12.8451C29.8244 12.5326 30 12.1086 30 11.6666C30 11.2246 29.8244 10.8007 29.5119 10.4881C29.1993 10.1755 28.7754 9.99995 28.3333 9.99995ZM12.0833 19.9999C12.0833 17.9003 12.9174 15.8867 14.4021 14.402C15.8867 12.9174 17.9004 12.0833 20 12.0833C22.0996 12.0833 24.1133 12.9174 25.5979 14.402C27.0826 15.8867 27.9167 17.9003 27.9167 19.9999C27.9167 22.0996 27.0826 24.1132 25.5979 25.5979C24.1133 27.0825 22.0996 27.9166 20 27.9166C17.9004 27.9166 15.8867 27.0825 14.4021 25.5979C12.9174 24.1132 12.0833 22.0996 12.0833 19.9999Z" fill="white"/>
</g>
</svg>
