<svg width="40" height="40" viewBox="0 0 40 40" fill="none" xmlns="http://www.w3.org/2000/svg">
<g id="mdi:gmail">
<path id="Vector" d="M33.3333 30.0001H30V15.4167L20 21.6667L10 15.4167V30.0001H6.66668V10.0001H8.66668L20 17.0834L31.3333 10.0001H33.3333M33.3333 6.66675H6.66668C4.81668 6.66675 3.33334 8.15008 3.33334 10.0001V30.0001C3.33334 30.8841 3.68453 31.732 4.30965 32.3571C4.93478 32.9822 5.78262 33.3334 6.66668 33.3334H33.3333C34.2174 33.3334 35.0652 32.9822 35.6904 32.3571C36.3155 31.732 36.6667 30.8841 36.6667 30.0001V10.0001C36.6667 9.11603 36.3155 8.26818 35.6904 7.64306C35.0652 7.01794 34.2174 6.66675 33.3333 6.66675Z" fill="white"/>
</g>
</svg>
